<?xml version="1.0" encoding="utf-8"?>
<svg version="1.1" id="Layer_1" 
	xmlns="http://www.w3.org/2000/svg" 
	xmlns:xlink="http://www.w3.org/1999/xlink" x="0px" y="0px" viewBox="0 0 350 120" style="enable-background:new 0 0 350 120;" xml:space="preserve">
	<style type="text/css">
	.st0{fill:#FFFFFF;}

@keyframes rotating {
  from {
    -ms-transform: rotate(0deg);
    -moz-transform: rotate(0deg);
    -webkit-transform: rotate(0deg);
    -o-transform: rotate(0deg);
    transform: rotate(0deg);
  }
  to {
    -ms-transform: rotate(360deg);
    -moz-transform: rotate(360deg);
	-webkit-transform: rotate(360deg);
    -o-transform: rotate(360deg);
    transform: rotate(360deg);
  }
}

#ball {
  will-change: transform;
  
  -webkit-transform-origin: 170.74px 52px;
      -ms-transform-origin: 170.74px 52px;
          transform-origin: 170.74px 52px;

  -webkit-animation: rotating 5s linear infinite;
     -moz-animation: rotating 5s linear infinite;
      -ms-animation: rotating 5s linear infinite;
       -o-animation: rotating 5s linear infinite;
          animation: rotating 5s linear infinite;
}

	</style>
	<g>
		<g>
			<path class="st0" d="M14.05,77.97V33.86c0-1.93,0-4,1.78-5.78c1.71-1.71,4.08-2,5.86-2h24.69c2.74,0,7.12,0,10.31,3.11
			c3.56,3.41,3.93,9.27,3.93,13.64c0,4.23-0.44,10.9-4.52,14.23c-1.93,1.56-4.89,2.52-7.93,2.52H23.83v18.39H14.05z M42.44,51.8
			c2.15,0,4.67,0,6.38-1.93c1.56-1.78,1.71-5.12,1.71-7.12c0-2.3-0.22-5.41-1.85-7.12c-1.71-1.71-4.45-1.78-6.08-1.78H26.8
			c-0.67,0-1.56-0.07-2.3,0.67c-0.67,0.67-0.67,1.56-0.67,2.45V51.8H42.44z"/>
			<path class="st0" d="M70.24,34.9c0-2.15,0.07-4.74,2.15-6.75c1.85-1.78,4.3-2.08,6.23-2.08h24.61c3.63,0,8.08,0.22,11.12,4.74
			c2.45,3.56,2.59,7.64,2.59,11.42c0,3.78-0.15,7.86-2.22,11.71c-1.33,2.52-3.86,5.34-9.79,5.34h-6.67v0.37l19.72,18.31h-12.31
			L88.63,61.14c-1.04-1.04-2.45-2.89-2.45-4.37v-1.19c0-2.08,1.56-3.56,4.37-3.56h9.79c1.71,0,4-0.22,5.34-2.3
			c1.04-1.63,1.19-5.34,1.19-7.12c0-4.08-0.82-6.15-1.85-7.19c-1.56-1.56-3.93-1.56-5.49-1.56H83.66c-1.04,0-1.78,0.07-2.59,0.82
			c-1.04,0.89-1.04,1.85-1.04,2.89v40.41h-9.79V34.9z"/>
		</g>
		<g>
			<path class="st0" d="M225.64,77.97V32.89c0-1.63,0.37-3.48,1.93-4.97c1.78-1.71,3.78-1.85,5.56-1.85h33.81v7.78h-29.06
			c-0.67,0-1.26-0.07-1.85,0.59c-0.59,0.59-0.59,1.41-0.59,2.08V47.8h22.98v7.78h-22.98v22.39H225.64z"/>
			<path class="st0" d="M273.9,77.97v-51.9h9.79v51.9H273.9z"/>
			<path class="st0" d="M309.85,77.97V33.86h-20.24v-7.78h50.34v7.78h-20.31v44.11H309.85z"/>
		</g>
		<path id="ball" class="st0" d="M186.34,15.16c-20.3-8.59-43.83,0.91-52.45,21.3c-12.45,29.43,13.22,61.27,44.94,54.78
		c18.26-3.74,31.96-19.89,31.96-39.21C210.78,35.67,200.9,21.32,186.34,15.16z M161.55,15.1c-0.16,1.22-0.32,2.42-0.47,3.6
		c-3.85,2.93-7.4,5.55-10.84,7.99c-1.99-0.94-3.83-1.73-5.55-2.38C149.36,19.92,155.13,16.69,161.55,15.1z M133.25,58.51
		c-0.72-4.21-0.74-8.61,0-12.94c0.85,0.34,1.71,0.7,2.58,1.08c-0.31,3.58-0.31,7.2,0,10.78C134.96,57.8,134.1,58.16,133.25,58.51z
		 M136.32,57.43c-0.32-3.59-0.32-7.2,0-10.78c3.71-1.94,7.59-4.14,11.87-6.71c3.15,1.54,6.68,3.39,10.77,5.66
		c-0.12,4.28-0.11,8.62,0,12.89c-4.09,2.27-7.62,4.12-10.77,5.66C143.92,61.56,140.03,59.37,136.32,57.43z M144.7,79.77
		c1.72-0.65,3.55-1.43,5.54-2.37c3.44,2.44,6.99,5.06,10.84,7.99c0.15,1.19,0.31,2.4,0.47,3.59
		C155.14,87.38,149.36,84.16,144.7,79.77z M170.52,78.91c-3.03,2-6.24,4.09-9.2,5.93c-3.85-2.93-7.41-5.54-10.85-7.98
		c-0.92-4.36-1.58-8.45-2.01-12.19c3.15-1.54,6.67-3.39,10.76-5.65c3.82,2.24,7.64,4.53,11.31,6.72V78.91z M170.52,38.34
		c-3.68,2.2-7.48,4.48-11.31,6.72c-4.08-2.27-7.61-4.12-10.76-5.65c0.47-4.1,1.16-8.21,2-12.19c3.44-2.44,7-5.05,10.85-7.98
		c2.97,1.84,6.17,3.94,9.21,5.93V38.34z M196.84,24.31c-1.72,0.65-3.56,1.43-5.55,2.38c-3.44-2.44-6.99-5.06-10.84-7.99
		c-0.14-1.13-0.3-2.36-0.47-3.6C186.4,16.69,192.17,19.92,196.84,24.31z M171.01,25.17c3.03-2,6.24-4.09,9.21-5.93
		c3.85,2.93,7.41,5.54,10.85,7.98c0.85,4,1.54,8.11,2.01,12.19c-3.15,1.54-6.67,3.39-10.76,5.65c-3.83-2.24-7.63-4.53-11.31-6.72
		V25.17z M171.01,65.74c3.7-2.21,7.49-4.49,11.31-6.72c4.08,2.27,7.61,4.12,10.76,5.65c-0.46,4.06-1.16,8.17-2.01,12.19
		c-3.45,2.44-7,5.05-10.85,7.98c-2.97-1.84-6.17-3.94-9.21-5.93V65.74z M179.98,88.97c0.16-1.18,0.32-2.41,0.47-3.6
		c3.85-2.93,7.4-5.55,10.84-7.99c1.99,0.94,3.83,1.73,5.55,2.37C192.17,84.15,186.4,87.38,179.98,88.97z M205.21,57.43
		c-3.71,1.94-7.59,4.14-11.87,6.71c-3.15-1.54-6.68-3.39-10.77-5.66c0.12-4.28,0.12-8.61,0-12.89c4.09-2.27,7.62-4.12,10.77-5.66
		c4.28,2.58,8.16,4.78,11.87,6.71C205.51,50.09,205.53,53.71,205.21,57.43z M208.28,58.5c-0.85-0.34-1.71-0.7-2.58-1.08
		c0.31-3.58,0.31-7.2,0-10.78c0.87-0.38,1.73-0.74,2.58-1.08C208.99,49.73,209.03,54.13,208.28,58.5z"/>
		<g>
			<path class="st0" d="M98.86,101.41c0.57,0,1.35,0.06,1.9,0.63c0.58,0.6,0.66,1.56,0.66,2.24c0,0.57-0.03,1.15-0.49,1.71
			c-0.3,0.36-0.6,0.51-0.99,0.54v0.06c0.49,0.04,0.9,0.27,1.15,0.55c0.49,0.54,0.49,1.29,0.49,1.87c0,0.69,0,1.53-0.6,2.2
			c-0.6,0.67-1.27,0.67-1.91,0.67h-5.01c-0.52,0-1,0.06-1.42-0.42c-0.1-0.12-0.36-0.46-0.36-1.06v-7.48c0-0.39,0.1-0.81,0.33-1.08
			c0.31-0.37,0.78-0.43,1.11-0.43H98.86z M94.25,105.81h3.83c0.39,0,0.81,0,1.08-0.37c0.07-0.09,0.22-0.34,0.22-1.06
			c0-0.28-0.02-0.81-0.34-1.12c-0.28-0.27-0.64-0.27-0.97-0.27h-3.23c-0.16,0-0.33-0.01-0.45,0.12c-0.12,0.13-0.13,0.34-0.13,0.46
			V105.81z M94.25,109.53c0,0.34,0.04,0.52,0.12,0.61c0.16,0.18,0.49,0.16,0.64,0.16h3.11c0.31,0,0.85-0.02,1.15-0.37
			c0.22-0.27,0.27-0.73,0.27-1.06c0-0.3-0.03-0.78-0.22-1.06c-0.12-0.16-0.42-0.43-1.06-0.43h-4.01V109.53z"/>
			<path class="st0" d="M120.37,111.88c-0.45,0-0.85,0-1.2-0.33c-0.36-0.34-0.39-0.82-0.39-1.23v-7.42c0-0.42,0.13-0.84,0.36-1.09
			c0.34-0.37,0.85-0.4,1.26-0.4h6.72v1.57h-5.65c-0.18,0-0.39,0.01-0.54,0.15c-0.16,0.15-0.16,0.36-0.16,0.51v2.11h6.21v1.57h-6.21
			v2.45c0,0.16,0.06,0.33,0.15,0.4c0.12,0.12,0.36,0.13,0.67,0.13h5.59v1.57H120.37z"/>
			<path class="st0" d="M147.27,111.88v-8.9h-4.08v-1.57h10.16v1.57h-4.1v8.9H147.27z"/>
			<path class="st0" d="M172.84,111.88v-8.9h-4.08v-1.57h10.16v1.57h-4.1v8.9H172.84z"/>
			<path class="st0" d="M195.37,111.88v-10.47h1.97v10.47H195.37z"/>
			<path class="st0" d="M224.87,110.52c0,1.06-0.7,1.48-1.56,1.48c-0.63,0-1.23-0.15-1.69-0.88l-4.41-6.97
			c-0.15-0.22-0.21-0.25-0.24-0.25c-0.07,0-0.21,0.09-0.21,0.3v7.69h-1.91v-9.17c0-0.9,0.61-1.42,1.6-1.42
			c0.93,0,1.38,0.37,1.66,0.82l4.44,7.02c0.07,0.1,0.1,0.25,0.24,0.25c0.16,0,0.16-0.18,0.16-0.25v-7.72h1.91V110.52z"/>
			<path class="st0" d="M251.75,110.53c0,0.54-0.19,0.87-0.39,1.03c-0.27,0.22-0.72,0.31-1.02,0.31h-4.46
			c-1.17,0-1.96-0.42-2.44-0.82c-1.27-1.06-1.38-2.89-1.38-4.35c0-1.72,0.16-3.65,1.71-4.65c0.64-0.42,1.53-0.64,2.53-0.64h5.21
			v1.57h-4.65c-1.14,0-1.91,0.4-2.32,1.14c-0.18,0.33-0.43,1.02-0.43,2.53c0,1.53,0.25,2.24,0.42,2.57c0.43,0.87,1.17,1.09,2,1.09
			h2.56c0.18,0,0.36,0,0.52-0.16c0.16-0.16,0.16-0.37,0.16-0.54v-2.86h1.97V110.53z"/>
		</g>
	</g>
</svg>
